<svg width="80" height="55" viewBox="0 0 80 55" fill="none" xmlns="http://www.w3.org/2000/svg">
<path fill-rule="evenodd" clip-rule="evenodd" d="M24.6104 53.1788L24.4098 52.9967C24.0084 52.2682 24.0084 51.5397 24.0084 50.8113H4.94313L33.4407 4.91722L45.2812 24.404L49.0942 21.8543L37.2537 2.36755C37.053 2.00331 35.6482 0 33.24 0C32.2365 0 30.631 0.364238 29.4269 2.36755L0.72871 48.8079C0.528023 49.1722 -0.676098 51.3576 0.528023 53.1788C0.929397 54.0894 2.13352 55 4.74245 55H28.8249C26.2159 55 25.0118 54.0894 24.6104 53.1788Z" fill="#00C58E"/>
<path fill-rule="evenodd" clip-rule="evenodd" d="M79.1973 48.9901L56.1183 11.2914C55.7169 10.9271 54.5128 8.92383 52.1045 8.92383C51.1011 8.92383 49.6963 9.28807 48.2915 11.2914L45.2812 15.6622V24.404L52.1045 13.6589L74.9828 50.8112H66.3533C66.4728 51.5599 66.3325 52.3237 65.9519 52.9967V53.1788C64.7478 55 62.1389 55 61.7375 55H75.3842C75.7856 55 78.3945 55 79.5986 53.1788C80 52.2682 80.4014 50.8112 79.1973 48.9901Z" fill="#108775"/>
<path d="M66.554 53.1788V52.9967L66.7547 52.6325C66.9554 52.0861 67.1561 51.3576 66.9554 50.8113L66.1526 48.808L48.0908 20.0331L45.4819 15.6623H45.2812L42.6723 20.0331L24.4098 48.808L23.8077 50.8113C23.6587 51.6191 23.7994 52.449 24.2091 53.1788C24.8111 54.0894 26.0153 55 28.4235 55H62.1389C62.7409 55 65.3499 55 66.554 53.1788ZM45.2812 24.404L61.9382 50.8113H28.8249L45.2812 24.404Z" fill="#2F495E"/>
</svg>
